<svg width="20" height="20" viewBox="0 0 20 20" fill="none" xmlns="http://www.w3.org/2000/svg">
<path d="M16.108 4.73315L10.883 1.91648C10.333 1.61648 9.66632 1.61648 9.11632 1.91648L3.89132 4.73315C3.50799 4.94148 3.27466 5.34148 3.27466 5.79982C3.27466 6.24982 3.50799 6.65815 3.89132 6.86648L9.11632 9.68315C9.39132 9.83315 9.69966 9.90815 9.99966 9.90815C10.2997 9.90815 10.608 9.83315 10.883 9.68315L16.108 6.86648C16.4913 6.65815 16.7247 6.25815 16.7247 5.79982C16.7247 5.34148 16.4913 4.94148 16.108 4.73315Z" fill="#1C1C1C"/>
<path d="M8.25841 10.6583L3.39175 8.22499C3.01675 8.04166 2.58341 8.05833 2.23341 8.275C1.87508 8.5 1.66675 8.87499 1.66675 9.29166V13.8833C1.66675 14.675 2.10841 15.3917 2.81675 15.75L7.67508 18.1833C7.84175 18.2667 8.02508 18.3083 8.20842 18.3083C8.42508 18.3083 8.64175 18.25 8.83342 18.1333C9.19175 17.9167 9.40008 17.5333 9.40008 17.1167V12.525C9.40841 11.725 8.96675 11.0083 8.25841 10.6583Z" fill="#1C1C1C"/>
<path d="M17.7673 8.27512C17.4089 8.05845 16.9756 8.03345 16.6089 8.22512L11.7506 10.6585C11.0423 11.0168 10.6006 11.7251 10.6006 12.5251V17.1168C10.6006 17.5335 10.8089 17.9168 11.1673 18.1334C11.3589 18.2501 11.5756 18.3084 11.7923 18.3084C11.9756 18.3084 12.1589 18.2668 12.3256 18.1834L17.1839 15.7501C17.8923 15.3918 18.3339 14.6834 18.3339 13.8835V9.29178C18.3339 8.87512 18.1256 8.50012 17.7673 8.27512Z" fill="#1C1C1C"/>
</svg>
