<svg width="48" height="48" viewBox="0 0 48 48" fill="none" xmlns="http://www.w3.org/2000/svg">
<circle cx="24" cy="24" r="24" fill="#E8E8E8"/>
<path d="M23.3196 15H17.0896C15.0996 15 14.0996 16.01 14.0996 18.02V34H19.4996V30.25C19.4996 29.84 19.8396 29.5 20.2496 29.5C20.6596 29.5 20.9996 29.83 20.9996 30.25V34H26.2996V18.02C26.2996 16.01 25.3096 15 23.3196 15ZM22.7496 24.75H17.7996C17.3896 24.75 17.0496 24.41 17.0496 24C17.0496 23.59 17.3896 23.25 17.7996 23.25H22.7496C23.1596 23.25 23.4996 23.59 23.4996 24C23.4996 24.41 23.1596 24.75 22.7496 24.75ZM22.7496 21H17.7996C17.3896 21 17.0496 20.66 17.0496 20.25C17.0496 19.84 17.3896 19.5 17.7996 19.5H22.7496C23.1596 19.5 23.4996 19.84 23.4996 20.25C23.4996 20.66 23.1596 21 22.7496 21Z" fill="#4F4F4F"/>
<path d="M35 33.25H32.73V30.25C33.68 29.94 34.37 29.05 34.37 28V26C34.37 24.69 33.3 23.62 31.99 23.62C30.68 23.62 29.61 24.69 29.61 26V28C29.61 29.04 30.29 29.92 31.22 30.24V33.25H13C12.59 33.25 12.25 33.59 12.25 34C12.25 34.41 12.59 34.75 13 34.75H31.93C31.95 34.75 31.96 34.76 31.98 34.76C32 34.76 32.01 34.75 32.03 34.75H35C35.41 34.75 35.75 34.41 35.75 34C35.75 33.59 35.41 33.25 35 33.25Z" fill="#4F4F4F"/>
</svg>
