<svg width="1384" height="58" viewBox="0 0 1384 58" fill="none" xmlns="http://www.w3.org/2000/svg">
<rect x="340.5" y="0.5" width="31" height="31" rx="15.5" fill="#A93636"/>
<rect x="340.5" y="0.5" width="31" height="31" rx="15.5" stroke="#A93636"/>
<path d="M357.014 20.5H355.586V12.268H353.752V11.036H357.014V20.5Z" fill="white"/>
<path d="M329.979 54.256V55H325.083V54.52L327.675 51.592C328.659 50.476 329.019 49.876 329.019 49.096C329.019 48.184 328.347 47.512 327.399 47.512C326.415 47.512 325.719 48.196 325.719 49.204H324.903C324.903 47.788 325.947 46.768 327.435 46.768C328.851 46.768 329.895 47.716 329.895 49.024C329.895 49.9 329.547 50.56 328.299 51.952L326.319 54.256H329.979ZM340.039 55L338.383 49.792L336.739 55H335.887L334.039 48.676H334.867L336.331 53.812L337.975 48.676H338.803L340.435 53.824L341.899 48.676H342.739L340.879 55H340.039ZM346.585 55.12C344.809 55.12 343.633 53.788 343.633 51.784C343.633 49.936 344.857 48.556 346.537 48.556C348.337 48.556 349.513 50.008 349.369 52.036H344.473C344.545 53.536 345.337 54.46 346.573 54.46C347.629 54.46 348.361 53.872 348.565 52.864H349.393C349.105 54.268 348.037 55.12 346.585 55.12ZM346.525 49.204C345.385 49.204 344.581 50.08 344.473 51.46H348.493C348.421 50.044 347.689 49.204 346.525 49.204ZM353.524 55.12C351.748 55.12 350.572 53.788 350.572 51.784C350.572 49.936 351.796 48.556 353.476 48.556C355.276 48.556 356.452 50.008 356.308 52.036H351.412C351.484 53.536 352.276 54.46 353.512 54.46C354.568 54.46 355.3 53.872 355.504 52.864H356.332C356.044 54.268 354.976 55.12 353.524 55.12ZM353.464 49.204C352.324 49.204 351.52 50.08 351.412 51.46H355.432C355.36 50.044 354.628 49.204 353.464 49.204ZM358.936 55H358.096V46.384H358.936V51.616L361.984 48.676H362.98L359.788 51.772L363.244 55H362.152L358.936 51.964V55ZM371.363 55V53.848C370.991 54.64 370.223 55.12 369.239 55.12C367.931 55.12 367.079 54.388 367.079 53.248C367.079 52.012 368.062 51.364 369.983 51.364C370.367 51.364 370.655 51.388 371.279 51.436V50.908C371.279 49.852 370.715 49.228 369.755 49.228C368.723 49.228 368.075 49.864 368.062 50.896H367.295C367.331 49.492 368.303 48.556 369.743 48.556C371.219 48.556 372.083 49.42 372.083 50.884V55H371.363ZM367.883 53.224C367.883 53.992 368.471 54.508 369.359 54.508C370.535 54.508 371.279 53.74 371.279 52.552V51.988C370.739 51.94 370.367 51.928 370.019 51.928C368.579 51.928 367.883 52.348 367.883 53.224ZM376.638 57.448C375.03 57.448 374.022 56.608 373.95 55.192H374.754C374.826 56.224 375.498 56.776 376.626 56.776C377.874 56.776 378.534 56.116 378.534 54.868V53.548C378.15 54.436 377.382 54.952 376.446 54.952C374.85 54.952 373.782 53.668 373.782 51.748C373.782 49.828 374.838 48.556 376.434 48.556C377.382 48.556 378.174 49.096 378.582 50.02V48.676H379.362V54.856C379.362 56.488 378.366 57.448 376.638 57.448ZM374.622 51.748C374.622 53.296 375.354 54.232 376.566 54.232C377.754 54.232 378.546 53.272 378.546 51.808C378.546 50.26 377.766 49.276 376.566 49.276C375.366 49.276 374.622 50.212 374.622 51.748ZM384.119 55.12C382.379 55.12 381.119 53.74 381.119 51.832C381.119 49.936 382.379 48.568 384.119 48.568C385.871 48.568 387.131 49.936 387.131 51.832C387.131 53.74 385.871 55.12 384.119 55.12ZM384.119 54.388C385.355 54.388 386.279 53.404 386.279 51.832C386.279 50.284 385.355 49.3 384.119 49.3C382.895 49.3 381.971 50.284 381.971 51.832C381.971 53.404 382.895 54.388 384.119 54.388Z" fill="#A93636"/>
<path d="M388 18H436" stroke="#E8E8E8" stroke-width="2" stroke-linecap="round"/>
<rect x="480.5" y="0.5" width="31" height="31" rx="15.5" fill="#F9F1F1"/>
<rect x="480.5" y="0.5" width="31" height="31" rx="15.5" stroke="#A93636"/>
<path d="M498.846 19.24V20.5H492.728V19.688L495.682 16.496C496.802 15.278 497.236 14.62 497.236 13.766C497.236 12.828 496.578 12.17 495.612 12.17C494.562 12.17 493.862 12.856 493.862 13.906H492.476C492.476 12.156 493.792 10.896 495.668 10.896C497.432 10.896 498.72 12.044 498.72 13.598C498.72 14.676 498.314 15.432 496.76 17.084L494.856 19.24H498.846Z" fill="#A93636"/>
<path d="M464.197 55H463.369V47.608H461.773V46.888H464.197V55ZM470.284 55H469.444V48.676H470.224V49.864C470.644 49.048 471.388 48.556 472.288 48.556C473.272 48.556 474.004 49.096 474.268 50.02C474.664 49.132 475.456 48.556 476.452 48.556C477.76 48.556 478.576 49.42 478.576 50.896V55H477.748V51.172C477.748 49.972 477.196 49.288 476.176 49.288C475.216 49.288 474.436 50.128 474.436 51.292V55H473.596V51.172C473.596 49.972 473.044 49.288 472.024 49.288C471.052 49.288 470.284 50.128 470.284 51.292V55ZM483.275 55.12C481.535 55.12 480.275 53.74 480.275 51.832C480.275 49.936 481.535 48.568 483.275 48.568C485.027 48.568 486.287 49.936 486.287 51.832C486.287 53.74 485.027 55.12 483.275 55.12ZM483.275 54.388C484.511 54.388 485.435 53.404 485.435 51.832C485.435 50.284 484.511 49.3 483.275 49.3C482.051 49.3 481.127 50.284 481.127 51.832C481.127 53.404 482.051 54.388 483.275 54.388ZM488.885 51.316V55H488.045V48.676H488.825V49.864C489.233 49.084 490.001 48.556 490.913 48.556C492.233 48.556 493.085 49.396 493.085 50.896V55H492.245V51.184C492.245 49.972 491.693 49.288 490.661 49.288C489.677 49.288 488.885 50.14 488.885 51.316ZM498.494 54.196V54.94C498.17 55.072 497.894 55.12 497.582 55.12C496.538 55.12 495.734 54.58 495.734 53.212V49.384H494.246V48.676H495.734V46.804H496.574V48.676H498.554V49.384H496.574V53.032C496.574 54.016 497.054 54.352 497.75 54.352C498.014 54.352 498.23 54.304 498.494 54.196ZM501.064 51.316V55H500.224V46.384H501.064V49.84C501.46 49.084 502.18 48.556 503.092 48.556C504.412 48.556 505.264 49.396 505.264 50.896V55H504.424V51.184C504.424 49.972 503.872 49.288 502.84 49.288C501.856 49.288 501.064 50.14 501.064 51.316ZM514.229 55V53.848C513.857 54.64 513.089 55.12 512.105 55.12C510.797 55.12 509.945 54.388 509.945 53.248C509.945 52.012 510.929 51.364 512.849 51.364C513.233 51.364 513.521 51.388 514.145 51.436V50.908C514.145 49.852 513.581 49.228 512.621 49.228C511.589 49.228 510.941 49.864 510.929 50.896H510.161C510.197 49.492 511.169 48.556 512.609 48.556C514.085 48.556 514.949 49.42 514.949 50.884V55H514.229ZM510.749 53.224C510.749 53.992 511.337 54.508 512.225 54.508C513.401 54.508 514.145 53.74 514.145 52.552V51.988C513.605 51.94 513.233 51.928 512.885 51.928C511.445 51.928 510.749 52.348 510.749 53.224ZM519.504 57.448C517.896 57.448 516.888 56.608 516.816 55.192H517.62C517.692 56.224 518.364 56.776 519.492 56.776C520.74 56.776 521.4 56.116 521.4 54.868V53.548C521.016 54.436 520.248 54.952 519.312 54.952C517.716 54.952 516.648 53.668 516.648 51.748C516.648 49.828 517.704 48.556 519.3 48.556C520.248 48.556 521.04 49.096 521.448 50.02V48.676H522.228V54.856C522.228 56.488 521.232 57.448 519.504 57.448ZM517.488 51.748C517.488 53.296 518.22 54.232 519.432 54.232C520.62 54.232 521.412 53.272 521.412 51.808C521.412 50.26 520.632 49.276 519.432 49.276C518.232 49.276 517.488 50.212 517.488 51.748ZM526.985 55.12C525.245 55.12 523.985 53.74 523.985 51.832C523.985 49.936 525.245 48.568 526.985 48.568C528.737 48.568 529.997 49.936 529.997 51.832C529.997 53.74 528.737 55.12 526.985 55.12ZM526.985 54.388C528.221 54.388 529.145 53.404 529.145 51.832C529.145 50.284 528.221 49.3 526.985 49.3C525.761 49.3 524.837 50.284 524.837 51.832C524.837 53.404 525.761 54.388 526.985 54.388Z" fill="#A93636"/>
<path d="M556 18H604" stroke="#E8E8E8" stroke-width="2" stroke-linecap="round"/>
<rect x="648.5" y="0.5" width="31" height="31" rx="15.5" fill="white"/>
<rect x="648.5" y="0.5" width="31" height="31" rx="15.5" stroke="#8E8E8E"/>
<path d="M663.476 20.626C661.516 20.626 660.144 19.478 660.13 17.812H661.516C661.572 18.834 662.328 19.492 663.476 19.492C664.666 19.492 665.394 18.848 665.394 17.826C665.394 16.832 664.568 16.202 663.266 16.202H662.286V15.068H663.196C664.26 15.068 664.96 14.452 664.96 13.528C664.96 12.632 664.33 12.03 663.378 12.03C662.412 12.03 661.768 12.646 661.726 13.612H660.354C660.396 12.058 661.712 10.896 663.434 10.896C665.254 10.896 666.43 11.946 666.43 13.43C666.43 14.354 665.884 15.096 664.904 15.558C666.15 15.894 666.864 16.706 666.864 17.798C666.864 19.478 665.492 20.626 663.476 20.626Z" fill="#8E8E8E"/>
<path d="M633.938 55.12C632.462 55.12 631.334 54.124 631.286 52.744H632.102C632.174 53.74 632.918 54.376 633.938 54.376C635.174 54.376 635.882 53.608 635.882 52.468C635.882 51.448 635.114 50.632 633.962 50.632C633.182 50.632 632.582 50.968 632.186 51.592L631.538 51.4L632.246 46.888H636.278V47.62H632.846L632.402 50.548C632.894 50.104 633.446 49.912 634.07 49.912C635.726 49.912 636.734 51.064 636.734 52.456C636.734 53.98 635.678 55.12 633.938 55.12ZM642.286 51.316V55H641.446V46.384H642.286V49.84C642.682 49.084 643.402 48.556 644.314 48.556C645.634 48.556 646.486 49.396 646.486 50.896V55H645.646V51.184C645.646 49.972 645.094 49.288 644.062 49.288C643.078 49.288 642.286 50.14 642.286 51.316ZM651.187 55.12C649.447 55.12 648.187 53.74 648.187 51.832C648.187 49.936 649.447 48.568 651.187 48.568C652.939 48.568 654.199 49.936 654.199 51.832C654.199 53.74 652.939 55.12 651.187 55.12ZM651.187 54.388C652.423 54.388 653.347 53.404 653.347 51.832C653.347 50.284 652.423 49.3 651.187 49.3C649.963 49.3 649.039 50.284 649.039 51.832C649.039 53.404 649.963 54.388 651.187 54.388ZM660.001 52.444V48.676H660.829V55H660.049V53.86C659.725 54.592 658.957 55.12 658.033 55.12C656.749 55.12 655.897 54.388 655.897 52.792V48.676H656.737V52.612C656.737 53.896 657.373 54.388 658.261 54.388C659.269 54.388 660.001 53.572 660.001 52.444ZM663.889 51.616V55H663.049V48.676H663.829V50.116C664.261 49.18 665.197 48.58 666.241 48.58V49.456C664.909 49.408 663.889 50.236 663.889 51.616ZM672.395 53.236C672.395 54.4 671.459 55.12 669.899 55.12C668.327 55.12 667.367 54.328 667.247 53.02H668.051C668.111 53.92 668.819 54.484 669.899 54.484C670.931 54.484 671.555 54.088 671.555 53.368C671.555 52.744 671.195 52.456 670.235 52.264L669.323 52.084C668.123 51.856 667.487 51.268 667.487 50.356C667.487 49.3 668.423 48.556 669.803 48.556C671.255 48.556 672.215 49.336 672.311 50.596H671.519C671.435 49.72 670.799 49.204 669.803 49.204C668.915 49.204 668.303 49.624 668.303 50.284C668.303 50.908 668.687 51.208 669.623 51.388L670.571 51.568C671.831 51.808 672.395 52.336 672.395 53.236ZM681.051 55V53.848C680.679 54.64 679.911 55.12 678.927 55.12C677.619 55.12 676.767 54.388 676.767 53.248C676.767 52.012 677.751 51.364 679.671 51.364C680.055 51.364 680.343 51.388 680.967 51.436V50.908C680.967 49.852 680.403 49.228 679.443 49.228C678.411 49.228 677.763 49.864 677.751 50.896H676.983C677.019 49.492 677.991 48.556 679.431 48.556C680.907 48.556 681.771 49.42 681.771 50.884V55H681.051ZM677.571 53.224C677.571 53.992 678.159 54.508 679.047 54.508C680.223 54.508 680.967 53.74 680.967 52.552V51.988C680.427 51.94 680.055 51.928 679.707 51.928C678.267 51.928 677.571 52.348 677.571 53.224ZM686.326 57.448C684.718 57.448 683.71 56.608 683.638 55.192H684.442C684.514 56.224 685.186 56.776 686.314 56.776C687.562 56.776 688.222 56.116 688.222 54.868V53.548C687.838 54.436 687.07 54.952 686.134 54.952C684.538 54.952 683.47 53.668 683.47 51.748C683.47 49.828 684.526 48.556 686.122 48.556C687.07 48.556 687.862 49.096 688.27 50.02V48.676H689.05V54.856C689.05 56.488 688.054 57.448 686.326 57.448ZM684.31 51.748C684.31 53.296 685.042 54.232 686.254 54.232C687.442 54.232 688.234 53.272 688.234 51.808C688.234 50.26 687.454 49.276 686.254 49.276C685.054 49.276 684.31 50.212 684.31 51.748ZM693.807 55.12C692.067 55.12 690.807 53.74 690.807 51.832C690.807 49.936 692.067 48.568 693.807 48.568C695.559 48.568 696.819 49.936 696.819 51.832C696.819 53.74 695.559 55.12 693.807 55.12ZM693.807 54.388C695.043 54.388 695.967 53.404 695.967 51.832C695.967 50.284 695.043 49.3 693.807 49.3C692.583 49.3 691.659 50.284 691.659 51.832C691.659 53.404 692.583 54.388 693.807 54.388Z" fill="#8E8E8E"/>
<path d="M724 18H772" stroke="#E8E8E8" stroke-width="2" stroke-linecap="round"/>
<rect x="816.5" y="0.5" width="31" height="31" rx="15.5" fill="white"/>
<rect x="816.5" y="0.5" width="31" height="31" rx="15.5" stroke="#8E8E8E"/>
<path d="M835.074 18.414H833.786V20.5H832.372V18.414H827.822V17.42L832.694 11.036H833.786V17.182H835.074V18.414ZM829.404 17.182H832.372V13.178L829.404 17.182Z" fill="#8E8E8E"/>
<path d="M792.202 55H791.374V47.608H789.778V46.888H792.202V55ZM796.834 55.12C795.358 55.12 794.23 54.124 794.182 52.744H794.998C795.07 53.74 795.814 54.376 796.834 54.376C798.07 54.376 798.778 53.608 798.778 52.468C798.778 51.448 798.01 50.632 796.858 50.632C796.078 50.632 795.478 50.968 795.082 51.592L794.434 51.4L795.142 46.888H799.174V47.62H795.742L795.298 50.548C795.79 50.104 796.342 49.912 796.966 49.912C798.622 49.912 799.63 51.064 799.63 52.456C799.63 53.98 798.574 55.12 796.834 55.12ZM805.182 55H804.342V48.676H805.122V49.864C805.542 49.048 806.286 48.556 807.186 48.556C808.17 48.556 808.902 49.096 809.166 50.02C809.562 49.132 810.354 48.556 811.35 48.556C812.658 48.556 813.474 49.42 813.474 50.896V55H812.646V51.172C812.646 49.972 812.094 49.288 811.074 49.288C810.114 49.288 809.334 50.128 809.334 51.292V55H808.494V51.172C808.494 49.972 807.942 49.288 806.922 49.288C805.95 49.288 805.182 50.128 805.182 51.292V55ZM816.733 47.212C816.733 47.584 816.457 47.848 816.049 47.848C815.653 47.848 815.377 47.584 815.377 47.212C815.377 46.852 815.653 46.588 816.049 46.588C816.457 46.588 816.733 46.852 816.733 47.212ZM816.481 55H815.641V48.676H816.481V55ZM819.541 51.316V55H818.701V48.676H819.481V49.864C819.889 49.084 820.657 48.556 821.569 48.556C822.889 48.556 823.741 49.396 823.741 50.896V55H822.901V51.184C822.901 49.972 822.349 49.288 821.317 49.288C820.333 49.288 819.541 50.14 819.541 51.316ZM829.953 52.444V48.676H830.781V55H830.001V53.86C829.677 54.592 828.909 55.12 827.985 55.12C826.701 55.12 825.849 54.388 825.849 52.792V48.676H826.689V52.612C826.689 53.896 827.325 54.388 828.213 54.388C829.221 54.388 829.953 53.572 829.953 52.444ZM836.253 54.196V54.94C835.929 55.072 835.653 55.12 835.341 55.12C834.297 55.12 833.493 54.58 833.493 53.212V49.384H832.005V48.676H833.493V46.804H834.333V48.676H836.313V49.384H834.333V53.032C834.333 54.016 834.813 54.352 835.509 54.352C835.773 54.352 835.989 54.304 836.253 54.196ZM840.267 55.12C838.491 55.12 837.315 53.788 837.315 51.784C837.315 49.936 838.539 48.556 840.219 48.556C842.019 48.556 843.195 50.008 843.051 52.036H838.155C838.227 53.536 839.019 54.46 840.255 54.46C841.311 54.46 842.043 53.872 842.247 52.864H843.075C842.787 54.268 841.719 55.12 840.267 55.12ZM840.207 49.204C839.067 49.204 838.263 50.08 838.155 51.46H842.175C842.103 50.044 841.371 49.204 840.207 49.204ZM849.568 53.236C849.568 54.4 848.632 55.12 847.072 55.12C845.5 55.12 844.54 54.328 844.42 53.02H845.224C845.284 53.92 845.992 54.484 847.072 54.484C848.104 54.484 848.728 54.088 848.728 53.368C848.728 52.744 848.368 52.456 847.408 52.264L846.496 52.084C845.296 51.856 844.66 51.268 844.66 50.356C844.66 49.3 845.596 48.556 846.976 48.556C848.428 48.556 849.388 49.336 849.484 50.596H848.692C848.608 49.72 847.972 49.204 846.976 49.204C846.088 49.204 845.476 49.624 845.476 50.284C845.476 50.908 845.86 51.208 846.796 51.388L847.744 51.568C849.004 51.808 849.568 52.336 849.568 53.236ZM858.223 55V53.848C857.851 54.64 857.083 55.12 856.099 55.12C854.791 55.12 853.939 54.388 853.939 53.248C853.939 52.012 854.923 51.364 856.843 51.364C857.227 51.364 857.515 51.388 858.139 51.436V50.908C858.139 49.852 857.575 49.228 856.615 49.228C855.583 49.228 854.935 49.864 854.923 50.896H854.155C854.191 49.492 855.163 48.556 856.603 48.556C858.079 48.556 858.943 49.42 858.943 50.884V55H858.223ZM854.743 53.224C854.743 53.992 855.331 54.508 856.219 54.508C857.395 54.508 858.139 53.74 858.139 52.552V51.988C857.599 51.94 857.227 51.928 856.879 51.928C855.439 51.928 854.743 52.348 854.743 53.224ZM863.498 57.448C861.89 57.448 860.882 56.608 860.81 55.192H861.614C861.686 56.224 862.358 56.776 863.486 56.776C864.734 56.776 865.394 56.116 865.394 54.868V53.548C865.01 54.436 864.242 54.952 863.306 54.952C861.71 54.952 860.642 53.668 860.642 51.748C860.642 49.828 861.698 48.556 863.294 48.556C864.242 48.556 865.034 49.096 865.442 50.02V48.676H866.222V54.856C866.222 56.488 865.226 57.448 863.498 57.448ZM861.482 51.748C861.482 53.296 862.214 54.232 863.426 54.232C864.614 54.232 865.406 53.272 865.406 51.808C865.406 50.26 864.626 49.276 863.426 49.276C862.226 49.276 861.482 50.212 861.482 51.748ZM870.98 55.12C869.24 55.12 867.98 53.74 867.98 51.832C867.98 49.936 869.24 48.568 870.98 48.568C872.732 48.568 873.992 49.936 873.992 51.832C873.992 53.74 872.732 55.12 870.98 55.12ZM870.98 54.388C872.216 54.388 873.14 53.404 873.14 51.832C873.14 50.284 872.216 49.3 870.98 49.3C869.756 49.3 868.832 50.284 868.832 51.832C868.832 53.404 869.756 54.388 870.98 54.388Z" fill="#8E8E8E"/>
<path d="M892 18H940" stroke="#E8E8E8" stroke-width="2" stroke-linecap="round"/>
<rect x="984.5" y="0.5" width="31" height="31" rx="15.5" fill="white"/>
<rect x="984.5" y="0.5" width="31" height="31" rx="15.5" stroke="#8E8E8E"/>
<path d="M999.864 20.64C998.016 20.64 996.602 19.436 996.532 17.756H997.946C998.044 18.764 998.814 19.366 999.864 19.366C1001.17 19.366 1001.81 18.554 1001.81 17.476C1001.81 16.496 1001.11 15.642 999.85 15.642C999.01 15.642 998.38 15.992 997.988 16.678L996.84 16.314L997.68 11.036H1002.73V12.296H998.702L998.282 15.026C998.814 14.606 999.416 14.41 1000.06 14.41C1002.15 14.41 1003.28 15.866 1003.28 17.476C1003.28 19.17 1002.06 20.64 999.864 20.64Z" fill="#8E8E8E"/>
<path d="M966.588 54.256V55H961.692V54.52L964.284 51.592C965.268 50.476 965.628 49.876 965.628 49.096C965.628 48.184 964.956 47.512 964.008 47.512C963.024 47.512 962.328 48.196 962.328 49.204H961.512C961.512 47.788 962.556 46.768 964.044 46.768C965.46 46.768 966.504 47.716 966.504 49.024C966.504 49.9 966.156 50.56 964.908 51.952L962.928 54.256H966.588ZM972.221 55H971.381V48.676H972.161V49.864C972.581 49.048 973.325 48.556 974.225 48.556C975.209 48.556 975.941 49.096 976.205 50.02C976.601 49.132 977.393 48.556 978.389 48.556C979.697 48.556 980.513 49.42 980.513 50.896V55H979.685V51.172C979.685 49.972 979.133 49.288 978.113 49.288C977.153 49.288 976.373 50.128 976.373 51.292V55H975.533V51.172C975.533 49.972 974.981 49.288 973.961 49.288C972.989 49.288 972.221 50.128 972.221 51.292V55ZM985.212 55.12C983.472 55.12 982.212 53.74 982.212 51.832C982.212 49.936 983.472 48.568 985.212 48.568C986.964 48.568 988.224 49.936 988.224 51.832C988.224 53.74 986.964 55.12 985.212 55.12ZM985.212 54.388C986.448 54.388 987.372 53.404 987.372 51.832C987.372 50.284 986.448 49.3 985.212 49.3C983.988 49.3 983.064 50.284 983.064 51.832C983.064 53.404 983.988 54.388 985.212 54.388ZM990.822 51.316V55H989.982V48.676H990.762V49.864C991.17 49.084 991.938 48.556 992.85 48.556C994.17 48.556 995.022 49.396 995.022 50.896V55H994.182V51.184C994.182 49.972 993.63 49.288 992.598 49.288C991.614 49.288 990.822 50.14 990.822 51.316ZM1000.43 54.196V54.94C1000.11 55.072 999.831 55.12 999.519 55.12C998.475 55.12 997.671 54.58 997.671 53.212V49.384H996.183V48.676H997.671V46.804H998.511V48.676H1000.49V49.384H998.511V53.032C998.511 54.016 998.991 54.352 999.687 54.352C999.951 54.352 1000.17 54.304 1000.43 54.196ZM1003 51.316V55H1002.16V46.384H1003V49.84C1003.4 49.084 1004.12 48.556 1005.03 48.556C1006.35 48.556 1007.2 49.396 1007.2 50.896V55H1006.36V51.184C1006.36 49.972 1005.81 49.288 1004.78 49.288C1003.79 49.288 1003 50.14 1003 51.316ZM1014.1 53.236C1014.1 54.4 1013.16 55.12 1011.6 55.12C1010.03 55.12 1009.07 54.328 1008.95 53.02H1009.75C1009.81 53.92 1010.52 54.484 1011.6 54.484C1012.63 54.484 1013.26 54.088 1013.26 53.368C1013.26 52.744 1012.9 52.456 1011.94 52.264L1011.03 52.084C1009.83 51.856 1009.19 51.268 1009.19 50.356C1009.19 49.3 1010.13 48.556 1011.51 48.556C1012.96 48.556 1013.92 49.336 1014.01 50.596H1013.22C1013.14 49.72 1012.5 49.204 1011.51 49.204C1010.62 49.204 1010.01 49.624 1010.01 50.284C1010.01 50.908 1010.39 51.208 1011.33 51.388L1012.27 51.568C1013.53 51.808 1014.1 52.336 1014.1 53.236ZM1022.75 55V53.848C1022.38 54.64 1021.61 55.12 1020.63 55.12C1019.32 55.12 1018.47 54.388 1018.47 53.248C1018.47 52.012 1019.45 51.364 1021.37 51.364C1021.76 51.364 1022.04 51.388 1022.67 51.436V50.908C1022.67 49.852 1022.1 49.228 1021.14 49.228C1020.11 49.228 1019.46 49.864 1019.45 50.896H1018.68C1018.72 49.492 1019.69 48.556 1021.13 48.556C1022.61 48.556 1023.47 49.42 1023.47 50.884V55H1022.75ZM1019.27 53.224C1019.27 53.992 1019.86 54.508 1020.75 54.508C1021.92 54.508 1022.67 53.74 1022.67 52.552V51.988C1022.13 51.94 1021.76 51.928 1021.41 51.928C1019.97 51.928 1019.27 52.348 1019.27 53.224ZM1028.03 57.448C1026.42 57.448 1025.41 56.608 1025.34 55.192H1026.14C1026.22 56.224 1026.89 56.776 1028.02 56.776C1029.26 56.776 1029.92 56.116 1029.92 54.868V53.548C1029.54 54.436 1028.77 54.952 1027.84 54.952C1026.24 54.952 1025.17 53.668 1025.17 51.748C1025.17 49.828 1026.23 48.556 1027.82 48.556C1028.77 48.556 1029.56 49.096 1029.97 50.02V48.676H1030.75V54.856C1030.75 56.488 1029.76 57.448 1028.03 57.448ZM1026.01 51.748C1026.01 53.296 1026.74 54.232 1027.96 54.232C1029.14 54.232 1029.94 53.272 1029.94 51.808C1029.94 50.26 1029.16 49.276 1027.96 49.276C1026.76 49.276 1026.01 50.212 1026.01 51.748ZM1035.51 55.12C1033.77 55.12 1032.51 53.74 1032.51 51.832C1032.51 49.936 1033.77 48.568 1035.51 48.568C1037.26 48.568 1038.52 49.936 1038.52 51.832C1038.52 53.74 1037.26 55.12 1035.51 55.12ZM1035.51 54.388C1036.75 54.388 1037.67 53.404 1037.67 51.832C1037.67 50.284 1036.75 49.3 1035.51 49.3C1034.29 49.3 1033.36 50.284 1033.36 51.832C1033.36 53.404 1034.29 54.388 1035.51 54.388Z" fill="#8E8E8E"/>
</svg>
